<?xml version="1.0" encoding="utf-8"?>
<!-- Generator: Adobe Illustrator 24.0.1, SVG Export Plug-In . SVG Version: 6.00 Build 0)  -->
<svg version="1.1" id="svg-editor-canvas" xmlns="http://www.w3.org/2000/svg" xmlns:xlink="http://www.w3.org/1999/xlink" x="0px"
	 y="0px" viewBox="0 0 168.9 156" style="enable-background:new 0 0 168.9 156;" xml:space="preserve">
<style type="text/css">
	.st0{fill:#FFFFFF;}
	.st1{fill:#DB5861;}
	.st2{opacity:0.23;enable-background:new    ;}
	.st3{fill:#AEB0B2;}
	.st4{fill:#555658;}
	.st5{fill:#FFB602;}
	.st6{fill:#6CAB36;}
</style>
<g id="logo__item--business">
</g>
<rect class="st0" width="168.9" height="156"/>
<g id="logo__item--logo_0">
	<g transform="translate(491.8501237137317 425.5) scale(0.09232533447788298 0.09232533447788298) rotate(0 0 0)">
		<g>
			<path class="st1" d="M-4402.4-3635.5L-4402.4-3635.5L-4402.4-3635.5z"/>
			<path class="st1" d="M-4888.4-3756c1.1-0.8,2.5-1.2,3.9-1.3h10c0-0.6,0-1.3,0.2-1.9c0.7-2.1,2.3-3.7,4.4-4.4l40.5-13.5
				c-3.1-4.3-7.8-11-10.6-14.8c-9.4,4.3-131.7,59.9-138.4,62.9c-0.6,6.1-2.9,29.5-2.9,29.5c-0.1,0.6-0.2,1.3-0.5,1.9
				c0,0-1.6,4.1-3.7,9.3L-4888.4-3756z"/>
			<path class="st1" d="M-4631.9-3401.6c-31.3,66.6-99,112.9-177.4,112.9c-29,0-56.5-6.4-81.2-17.7c29.9,42,110.3,155,111.3,156.4
				c4.6,3.4,46.1,32.6,89.4,15.2c9.8-3.9,18.6-8.8,26.4-14.1c7.9-13.3,13.8-36.8,15.1-46.8
				C-4645.2-3219.9-4634-3372.7-4631.9-3401.6z"/>
			<path class="st1" d="M-4782.2-3717.6c8.8,14,27.4,43.8,27.4,43.8c0.3,0.4,0.4,0.9,0.6,1.3c81.3,23.8,140.9,99,140.9,187.9
				c0,27.2-5.6,53.2-15.7,76.7l31.7-17.9c0.2-2.5,0.3-4,0.3-4.1c0.2-2.3,1.5-4.4,3.5-5.5l296.6-167.6
				c-82.2-21.9-142.9-96.9-142.9-185.8c0-106.1,86.3-192.4,192.4-192.4c4.6,0,9.1,0.2,13.6,0.5l-9.6-8.6c-0.2-0.2-0.5-0.3-0.7-0.5
				l-0.7-0.9l-48.5-44h-10l-19.8-23c-23.7,14.8-110.1,68.9-120.9,75.6c0.8,2.6,1.8,6.2,2.9,9.8c7.8,20.8,24.6,65.6,24.6,65.6
				c0.3,0.8,0.4,1.6,0.4,2.4c0,2.8-1.7,5.4-4.5,6.4c-3.6,1.3-7.5-0.5-8.9-4l-4.8-12.8C-4517.2-3783.8-4733.6-3728.5-4782.2-3717.6z
				 M-4512.6-3550.5l-54.7,24.9c-8.1,3.7-17.8,0-21.5-8.1c-3.7-8.1-0.1-17.8,8-21.5l54.7-24.7c8.1-3.7,17.8-0.7,21.5,8.3l0,0
				C-4500.9-3563.7-4504.5-3554.3-4512.6-3550.5z M-4424.4-3641.9c7.8-4.3,17.7-1.4,22,6.5c1.3,2.4,2,5.1,2,7.8
				c0,1.5-0.2,3.1-0.7,4.6c-1.2,4.2-4,7.6-7.8,9.7l-52.8,28.9c-3.8,2.1-8.2,2.6-12.3,1.3c-4.2-1.2-7.6-4-9.7-7.8
				c-4.3-7.8-1.4-17.7,6.5-22L-4424.4-3641.9z"/>
			<path class="st1" d="M-3959-3756.9c-26.9-25.4-70.5-66.9-110.6-105c9.3,22.5,14.4,47.2,14.4,73.1c0,99.6-76.1,181.8-173.3,191.4
				c132.8,30.8,300.9,63.7,327.5,51.4c10.3-4.8,19.9-11,28.5-18.3c6.6-13.7,10.4-28.1,10.4-42.1
				C-3862-3646.6-3898.8-3700.1-3959-3756.9z"/>
			<path class="st1" d="M-4620.8-3197.6c-4.2,7.9-9.2,15.9-15,23.4C-4629.4-3182-4624.4-3190.1-4620.8-3197.6z"/>
			<path class="st1" d="M-4429.9-4023.4c-1.6,6.2-3.1,13.1-3.1,13.1c-0.1,0.5-0.3,1.4-0.5,1.8c0,0-1.1,0.8-2.5,3.6l87.5-55.9h-11.6
				L-4429.9-4023.4z"/>
			<path class="st1" d="M-4785.7-3758.9c-3.5-3.5-8.8-8.8-12.2-12.2c-0.5-0.5-1.1-1.1-1.5-1.5c-6.1,2-43,14.4-56.4,18.8
				c0.5,0.9,0.9,2,0.9,3.1c11.3,16.1,46.1,65.9,49.3,70.4c0.6,0,1.2,0.1,1.8,0.1c2.5,0.1,5,0.2,7.4,0.3c7.4,0.4,15.6,1,22.4,1.6
				c-9-14.3-26.1-41.7-26.1-41.7c-0.7-1.1-1-2.4-1-3.7c0-1,0.2-1.9,0.6-2.8C-4800.4-3726.5-4788.8-3752.1-4785.7-3758.9z"/>
			<path class="st1" d="M-4822.1-3679.9l-44.6-63.7c-5.3,0-13.3,0-15.6,0c-3,2.1-92,64.2-111.6,77.8c2.2,6.9,14.9,46.4,22.8,71
				C-4938.1-3643-4883.9-3675.8-4822.1-3679.9z"/>
			<path d="M-3916.7-3798.8l-203.9-193.9c-0.7-0.7-1.6-1.2-2.6-1.5c0,0-56.2-19.4-58.8-20.2c-2.1-1.9-69.2-63.2-69.2-63.2l0,0
				c-0.1,0-0.4,0.4-0.5,0.3c-0.5-0.4-1.1-0.5-1.7-0.7c-0.2-0.1-0.5,0.4-0.7,0.3c-0.5-0.1-1.1,0.1-1.7,0.1c0,0-3.9,0-6.9,0
				c-3.3,0-18-22.3-18-22.3c-1.3-1.5-3.2-3.7-5.2-3.7h-36.8c-1.1,0-2.2,1.3-3.2,1.8l-110.4,57.3c-1.8,0.9-3,2.8-3.5,4.7
				c0,0-6.1,24.7-6.5,26.1c-0.7,1.3-12.4,24.3-12.4,24.3c-0.3,0.5-0.3,1.1-0.4,1.6c-1,1.7-1.3,3.8-0.6,5.8l5.3,14.3
				c1.4,4.6,2.6,9,3.3,11.3c-14.1,13-79.3,71.5-164.3,121.3c-2.1-4.3-6.4-7.3-11.5-7.6c-0.5,0-47.8-3.1-72-37.7
				c-17.8-25.5-19.5-62.5-5.1-109.8c36-118.2,9.1-191.8-31.7-226.4c0.1-0.4,0.1-0.8,0.2-1.2c39.3,2.5,69.9-7.2,90.8-29.2
				c38.7-40.8,29.9-107.8,29.5-110.7c-0.4-3-3.1-5.2-6.1-5.1c-39.6,1.8-70.1,14.6-90.6,37.9c-11.7,13.3-18.6,28.2-22.6,41.8
				c-4.2-28.4-15.2-52.6-33-72.5c-60.2-67.5-175.3-59.3-180.1-58.9c-4.6,0.4-8.3,4.1-8.6,8.8c-3.6,60.4,11.3,109.5,44.4,146
				c22.8,25.2,50.7,40.4,75.7,49.7c-0.4,0.2-0.8,0.2-1.3,0.4c-52.4,20.2-73.4,84.5-74.3,87.2c-0.9,2.9,0.5,6,3.3,7.2
				c35.7,15.1,68.2,16.5,96.6,4.3c45.3-19.5,63.3-66.4,64.1-68.4c0.3-0.7,0.4-1.4,0.4-2.1v-0.1c0.5-0.2,3.5-1.4,5.5-2.3
				c26.3,32.5,39.6,92.8,11.4,185.4c-17,56-14,101.1,9.1,133.9c21.4,30.5,54.6,42.1,75,46.5c-40.7,21.5-84.8,39.8-129.3,49.9
				c-3.1-3.1-11.3-11.3-15.2-15.2c-1.3-1.3-2.1-2.1-2.1-2.1c-0.7-0.7-1.5-1.2-2.4-1.5c-0.1-0.1-0.3-0.1-0.4-0.2
				c-0.9-0.3-1.8-0.4-2.8-0.2c-0.1,0-0.1,0-0.2,0c0,0-13.7,1.9-19.3,2.8c-3.6-5-14.3-20-14.3-20c-1.9-2.7-5.4-3.6-8.5-2.3
				l-147.1,66.9c-2.2,1-3.8,3.1-4,5.6c0,0-3.1,30.6-3.2,32.5c-0.5,1.3-7.8,19.6-11.3,28.2c-2,1.7-2.8,4.3-2.2,6.8c0,0.1,0,0.1,0,0.2
				c0,0.7,0.1,1.4,0.3,2.1l27.5,85.5c-15.6,28.1-24.5,60.3-24.5,94.7c0,68.9,35.8,129.6,89.8,164.5l0.7,2.7c0.2,0.8,0.6,1.6,1.1,2.3
				l123.7,173.9c0.4,0.5,0.8,1,1.4,1.4c2,1.6,50.5,39,103.8,17.7c49.6-19.9,80.6-64.2,84.5-95.8c3.1-24.9,14.5-180.8,16.5-207.3
				c6.3-3.5,297.4-168.1,302.1-170.7c44,10.7,342.8,82.6,386.4,62.4c45.7-21.1,77.6-66.3,77.6-109.9
				C-3817.6-3694.5-3871.5-3756.1-3916.7-3798.8z M-4816.1-4121.6c-23.9,10.3-51.5,9.1-81.9-2.6c5.9-15.1,26.1-59.3,65.3-74.4
				c22.6-8.7,48.3-5.1,76.1,8.4c-20.4,8.4-116.5,48.1-116.5,48.1c-2.3,0.9-3.6,3.1-3.6,5.4c0,0.7,0.1,1.5,0.4,2.2
				c1.2,3,4.6,4.5,7.5,3.3c0,0,82.4-31.2,104.2-39.5C-4772.9-4156.1-4789.2-4133.2-4816.1-4121.6z M-4937.8-4388.4
				c0-2.5,0.2-5.2,0.2-7.7c26-0.5,110.8,1.9,156.5,53.1c20.1,22.5,30.1,52,30.1,87.9c0,8.8-0.8,18-2,27.6
				c-21.9-21.5-144.8-140.8-144.8-140.8c-3.6-3.5-9.3-3.5-12.9-0.1c-2,1.8-2.9,4.3-2.9,6.8c0,2.2,0.7,4.3,2.3,6.1
				c0,0,93.9,109.1,118.8,138.1c-27.2-5.2-72.5-18.8-105.2-54.9C-4924.4-4301.8-4937.8-4340.7-4937.8-4388.4z M-4626.1-4350.4
				c0.2,3,0.4,6.9,0.4,11.7c0,21.7-3.8,58.8-27.4,83.5c-16.9,17.8-41.4,26.4-73,25.9c13.9-15.4,85.2-94.3,85.2-94.3
				c1-1.1,1.5-2.5,1.5-3.9c0-1.6-0.6-3.1-1.8-4.2c-2.3-2.2-5.9-2.2-8.2,0c0,0-61.7,60.6-77.9,76.5c1.2-15.5,6-41,24.5-62
				C-4685.4-4336.9-4659.5-4347.8-4626.1-4350.4z M-4318.9-4094.7h36.8l18.3,19.1l-15.9-0.3l-40,1.6c-1.2,0.1-2.3,0.1-3.3,0.7
				l-25.6,15.9l-87.5,54.6c1.4-2.8,2.5-4.9,2.5-4.9c0.2-0.5,0.4-1,0.5-1.5c0,0,1.6-6.2,3.1-12.4l-5.1,2.6l5.7-20.8L-4318.9-4094.7z
				 M-4628.1-3815.3c7.4,0.4,13.7-5.2,14.3-12.5c123.8-65.5,167.7-129.8,167.7-129.8l18.4,32.1c-2.1,3.7-4.3,7.3-6.6,10.8l4.8,12.8
				c1.3,3.6,5.3,5.4,8.9,4c2.8-1,4.5-3.7,4.5-6.4c0-0.8-0.1-1.6-0.4-2.4c0,0-16.8-44.8-24.6-65.6c-1.1-3.6-2.1-7.1-2.9-9.8
				c10.7-6.7,97.1-60.7,120.9-75.5c3.5-2.2,5.6-3.5,6-3.7c0.6,0,3-0.2,6.5-0.3l65.8,71l0.7,0.8c0.2,0.2,0.5,0.3,0.7,0.5
				c2.6,2.2,6.5,2.3,9.1-0.1c2.8-2.6,3-6.9,0.4-9.8l-58.9-63.3c13.4-0.7,28.3-1.5,34.5-1.8c1.8-0.1,2.9-0.2,2.9-0.2
				c3.7-0.2,6.5-3.2,6.5-6.9c0-0.1,0-0.2,0-0.4c0-0.6-0.3-1.1-0.4-1.6l67.6,61.1l60.2,20.1c0,0,143.8,137.1,204,193.9
				c60.2,56.8,97,110.3,97,150.5c0,35.2-23.2,73-58.3,95.3c2.4-3.9,4.6-7.8,6.6-11.9c-8.6,7.3-18.2,13.6-28.5,18.3
				c-26.6,12.3-194.7-20.6-327.5-51.4c97.2-9.6,173.3-91.8,173.3-191.4c0-25.9-5.2-50.5-14.4-73.1c-27.2-66-90-113.6-164.4-118.8
				c-4.5-0.3-9-0.5-13.6-0.5c-106.1,0-192.4,86.3-192.4,192.4c0,88.9,60.7,163.9,142.8,185.9l-296.6,167.6c-2,1.1-3.3,3.2-3.5,5.5
				c0,0.2-0.1,1.7-0.3,4.1l5.8-3.3c-3.5,47.5-12.6,170.4-15.3,191.9c-1.2,9.9-6,24.4-13.9,39.5c-3.6,7.5-8.6,15.5-15,23.4
				c-7.9,10.2-17.3,19.5-28.2,26.5c0.3-0.4,0.5-0.9,0.7-1.3c-7.8,5.3-16.6,10.2-26.4,14.1c-43.3,17.3-84.8-11.8-89.4-15.2
				c-1-1.4-81.4-114.4-111.3-156.4c24.8,11.3,52.3,17.7,81.2,17.7c78.4,0,146.1-46.3,177.4-112.9c1-2,1.9-4.1,2.8-6.1
				c10.1-23.6,15.7-49.5,15.7-76.7c0-88.9-59.6-164.1-140.9-187.9c-0.2-0.5-0.3-0.9-0.6-1.3c0,0-18.6-29.8-27.4-43.8
				c-6.3,1.4-9.9,2.1-9.9,2.1l14.7-45c54.9-17.3,101.6-36.4,141.1-55.8C-4631.7-3815.5-4628.6-3815.3-4628.1-3815.3z
				 M-4432.9-3788.8c0-102.3,83.2-185.5,185.5-185.5c102.3,0,185.5,83.2,185.5,185.5c0,102.3-83.2,185.5-185.5,185.5
				C-4349.7-3603.3-4432.9-3686.5-4432.9-3788.8z M-4981.2-3699.5c0,0,2.3-23.3,2.9-29.5c6.6-3,129-58.6,138.4-62.9
				c2.7,3.8,7.5,10.5,10.6,14.8l-40.5,13.5c-2.1,0.7-3.7,2.3-4.4,4.4c-0.2,0.6-0.1,1.3-0.2,1.9h-10c-1.4,0-2.8,0.4-3.9,1.3
				l-97.1,67.7c2.1-5.2,3.7-9.3,3.7-9.3C-4981.5-3698.2-4981.3-3698.9-4981.2-3699.5z M-4800-3720c0,0,17.1,27.4,26.1,41.7
				c-6.8-0.6-15-1.2-22.4-1.6c-2.5-0.2-4.9-0.3-7.4-0.3c-0.6,0-1.2-0.1-1.8-0.1c-3.2-4.5-38-54.3-49.3-70.4c0-1.1-0.4-2.2-0.9-3.1
				c13.4-4.5,50.4-16.8,56.4-18.8c0.4,0.4,1,1,1.5,1.5c3.3,3.4,8.7,8.7,12.2,12.2c-3.1,6.8-14.7,32.4-14.7,32.4
				c-0.4,0.9-0.6,1.9-0.6,2.8C-4801-3722.3-4800.7-3721.1-4800-3720z M-4882.3-3743.5c2.3,0,10.3,0,15.6,0l44.6,63.7
				c-61.8,4-115.9,36.9-149,85.3c-7.9-24.6-20.6-64.2-22.8-71C-4974.3-3679.3-4885.3-3741.4-4882.3-3743.5z M-4809.2-3666.6
				c100.4,0,182,81.7,182,182c0,100.4-81.7,182-182,182c-100.4,0-182-81.7-182-182C-4991.2-3584.9-4909.6-3666.6-4809.2-3666.6z"/>
			<path class="st1" d="M-4631.9-3401.6c-2.1,29-13.3,181.7-16.4,205.9c-1.3,10-7.1,33.5-15.1,46.8c11.1-7.6,20.2-16.3,27.4-25.2
				c5.9-7.6,10.9-15.6,15-23.4c4-8.3,6.3-15.9,7.1-22c3-24.1,14.4-179,16.4-206.2l-31.7,17.9
				C-4630-3405.7-4630.9-3403.7-4631.9-3401.6z"/>
			<path class="st2" d="M-4631.9-3401.6c-2.1,29-13.3,181.7-16.4,205.9c-1.3,10-7.1,33.5-15.1,46.8c11.1-7.6,20.2-16.3,27.4-25.2
				c5.9-7.6,10.9-15.6,15-23.4c4-8.3,6.3-15.9,7.1-22c3-24.1,14.4-179,16.4-206.2l-31.7,17.9
				C-4630-3405.7-4630.9-3403.7-4631.9-3401.6z"/>
			<path d="M-4620.8-3197.6c7.9-15.1,12.7-29.6,13.9-39.5c2.7-21.5,11.8-144.5,15.3-191.9l-5.8,3.3c-2,27.2-13.4,182.1-16.4,206.2
				C-4614.5-3213.5-4616.8-3205.8-4620.8-3197.6z"/>
			<path class="st2" d="M-4620.8-3197.6c7.9-15.1,12.7-29.6,13.9-39.5c2.7-21.5,11.8-144.5,15.3-191.9l-5.8,3.3
				c-2,27.2-13.4,182.1-16.4,206.2C-4614.5-3213.5-4616.8-3205.8-4620.8-3197.6z"/>
			<path d="M-4663.3-3148.9c-0.2,0.4-0.5,0.9-0.7,1.3c10.9-7,20.3-16.4,28.2-26.5C-4643.1-3165.2-4652.2-3156.5-4663.3-3148.9z"/>
			<path class="st2" d="M-4663.3-3148.9c-0.2,0.4-0.5,0.9-0.7,1.3c10.9-7,20.3-16.4,28.2-26.5
				C-4643.1-3165.2-4652.2-3156.5-4663.3-3148.9z"/>
			<path class="st1" d="M-4321-4086.7c-2.8,0-100.9,51.4-106.1,54c-0.5,2-1.7,5-2.8,9.6l69.7-37.6h11.6l25.6-14.6
				c1-0.6,2.1-0.3,3.3-0.3l40-1.2c-3.8-4.5-7.8-9.9-9.3-9.9C-4294.1-4086.7-4318.2-4086.7-4321-4086.7z"/>
			<path class="st2" d="M-4321-4086.7c-2.8,0-100.9,51.4-106.1,54c-0.5,2-1.7,5-2.8,9.6l69.7-37.6h11.6l25.6-14.6
				c1-0.6,2.1-0.3,3.3-0.3l40-1.2c-3.8-4.5-7.8-9.9-9.3-9.9C-4294.1-4086.7-4318.2-4086.7-4321-4086.7z"/>
			<path class="st1" d="M-4069.5-3861.9c40,38.1,83.6,79.6,110.6,105c60.2,56.8,97,110.3,97,150.5c0,14-3.7,28.4-10.4,42.1
				c24.9-21.1,41-51,41-79.1c0-36.1-33.7-87.7-94.8-145.5c0,0-200.7-190.8-202.9-192.9c-2.8-0.9-58.7-19.6-58.7-19.6
				c-0.9-0.3-1.7-0.8-2.4-1.4c0,0-63.7-57.6-68.1-61.6c-6.1,0.3-21.1,1.1-34.5,1.8l58.8,63.4c2.6,2.8,2.4,7.2-0.4,9.8
				c-2.6,2.4-6.4,2.3-9.1,0.1l9.6,8.6C-4159.5-3975.5-4096.7-3927.8-4069.5-3861.9z"/>
			<path class="st2" d="M-4069.5-3861.9c40,38.1,83.6,79.6,110.6,105c60.2,56.8,97,110.3,97,150.5c0,14-3.7,28.4-10.4,42.1
				c24.9-21.1,41-51,41-79.1c0-36.1-33.7-87.7-94.8-145.5c0,0-200.7-190.8-202.9-192.9c-2.8-0.9-58.7-19.6-58.7-19.6
				c-0.9-0.3-1.7-0.8-2.4-1.4c0,0-63.7-57.6-68.1-61.6c-6.1,0.3-21.1,1.1-34.5,1.8l58.8,63.4c2.6,2.8,2.4,7.2-0.4,9.8
				c-2.6,2.4-6.4,2.3-9.1,0.1l9.6,8.6C-4159.5-3975.5-4096.7-3927.8-4069.5-3861.9z"/>
			<path class="st1" d="M-4293.3-4034.7l48.5,44l-65.8-71c-3.5,0.2-5.9,0.3-6.5,0.4c-0.4,0.2-2.5,1.4-6,3.6l19.8,23H-4293.3z"/>
			<path class="st2" d="M-4293.3-4034.7l48.5,44l-65.8-71c-3.5,0.2-5.9,0.3-6.5,0.4c-0.4,0.2-2.5,1.4-6,3.6l19.8,23H-4293.3z"/>
			<path d="M-4187.8-4001.3c0,0,56,18.6,58.7,19.6c2.2,2.1,202.9,192.9,202.9,192.9c61.1,57.7,94.8,109.4,94.8,145.5
				c0,28.1-16.2,57.9-41,79.1c-2,4-4.1,8-6.6,11.9c35.1-22.3,58.3-60.1,58.3-95.3c0-40.1-36.8-93.6-97-150.5
				c-60.2-56.9-204-193.9-204-193.9l-60.2-20.1l-67.6-61.1c0.2,0.5,0.4,1,0.4,1.6c0,0.1,0,0.3,0,0.4c0,3.6-2.8,6.7-6.5,6.9
				c0,0-1.1,0.1-2.9,0.2c4.4,4,68.1,61.6,68.1,61.6C-4189.5-4002.1-4188.6-4001.6-4187.8-4001.3z"/>
			<path class="st2" d="M-4187.8-4001.3c0,0,56,18.6,58.7,19.6c2.2,2.1,202.9,192.9,202.9,192.9c61.1,57.7,94.8,109.4,94.8,145.5
				c0,28.1-16.2,57.9-41,79.1c-2,4-4.1,8-6.6,11.9c35.1-22.3,58.3-60.1,58.3-95.3c0-40.1-36.8-93.6-97-150.5
				c-60.2-56.9-204-193.9-204-193.9l-60.2-20.1l-67.6-61.1c0.2,0.5,0.4,1,0.4,1.6c0,0.1,0,0.3,0,0.4c0,3.6-2.8,6.7-6.5,6.9
				c0,0-1.1,0.1-2.9,0.2c4.4,4,68.1,61.6,68.1,61.6C-4189.5-4002.1-4188.6-4001.6-4187.8-4001.3z"/>
			<path d="M-4435-4019.3l5.1-2.6c1.2-4.6,2.3-8.7,2.8-10.7c5.2-2.7,103.3-54,106.1-54s26.9,0,32,0c1.5,0,5.5,5.8,9.3,10.3l15.9,1.1
				l-18.3-19.5h-36.8l-110.3,54.6L-4435-4019.3z"/>
			<path class="st2" d="M-4435-4019.3l5.1-2.6c1.2-4.6,2.3-8.7,2.8-10.7c5.2-2.7,103.3-54,106.1-54s26.9,0,32,0
				c1.5,0,5.5,5.8,9.3,10.3l15.9,1.1l-18.3-19.5h-36.8l-110.3,54.6L-4435-4019.3z"/>
			<path class="st3" d="M-4809.2-3302.5c100.4,0,182-81.7,182-182c0-100.4-81.7-182-182-182c-100.4,0-182,81.7-182,182
				C-4991.2-3384.1-4909.6-3302.5-4809.2-3302.5z M-4809.2-3613.4c71.1,0,128.8,57.8,128.8,128.8s-57.8,128.8-128.8,128.8
				c-71,0-128.8-57.8-128.8-128.8C-4938-3555.6-4880.3-3613.4-4809.2-3613.4z"/>
			<path class="st4" d="M-4809.2-3362.6c67.2,0,122-54.7,122-121.9s-54.7-122-122-122c-67.2,0-121.9,54.7-121.9,122
				C-4931.2-3417.3-4876.4-3362.6-4809.2-3362.6z M-4809.2-3582.7c54.1,0,98.1,44,98.1,98.1c0,54.1-44,98.1-98.1,98.1
				s-98.1-44-98.1-98.1C-4907.3-3538.6-4863.3-3582.7-4809.2-3582.7z"/>
			<path d="M-4809.2-3355.7c71.1,0,128.8-57.8,128.8-128.8c0-71.1-57.8-128.8-128.8-128.8c-71,0-128.8,57.8-128.8,128.8
				C-4938-3413.5-4880.3-3355.7-4809.2-3355.7z M-4809.2-3606.5c67.2,0,122,54.7,122,122c0,67.2-54.7,121.9-122,121.9
				c-67.2,0-121.9-54.7-121.9-121.9C-4931.2-3551.8-4876.4-3606.5-4809.2-3606.5z"/>
			<path class="st5" d="M-4809.2-3398.8c47.3,0,85.8-38.5,85.8-85.8c0-47.3-38.5-85.8-85.8-85.8s-85.8,38.5-85.8,85.8
				C-4895-3437.2-4856.5-3398.8-4809.2-3398.8z"/>
			<path d="M-4809.2-3386.4c54.1,0,98.1-44,98.1-98.1c0-54.1-44-98.1-98.1-98.1s-98.1,44-98.1,98.1
				C-4907.3-3430.4-4863.3-3386.4-4809.2-3386.4z M-4809.2-3570.3c47.3,0,85.8,38.5,85.8,85.8c0,47.3-38.5,85.8-85.8,85.8
				s-85.8-38.5-85.8-85.8C-4895-3531.8-4856.5-3570.3-4809.2-3570.3z"/>
			<path class="st4" d="M-4062-3788.8c0-102.3-83.2-185.5-185.5-185.5s-185.5,83.2-185.5,185.5c0,102.3,83.2,185.5,185.5,185.5
				S-4062-3686.5-4062-3788.8z M-4290.8-3922.3c26.6,0,48.2,21.6,48.2,48.2c0,12.9-5,25-14.1,34.1c-9.1,9.1-21.2,14.1-34.1,14.1
				c-26.6,0-48.2-21.6-48.2-48.2C-4338.9-3900.7-4317.3-3922.3-4290.8-3922.3z M-4323.8-3705.9c-12.9,0-25-5-34.1-14.1
				c-9.1-9.1-14.1-21.2-14.1-34.1c0-26.6,21.6-48.2,48.2-48.2c12.9,0,25,5,34.1,14.1c9.1,9.1,14.1,21.2,14.1,34.1
				c0,12.9-5,25-14.1,34.1C-4298.8-3711-4310.9-3705.9-4323.8-3705.9z M-4166.7-3669.1c-9.1,9.1-21.2,14.1-34.1,14.1
				c-12.9,0-25-5-34.1-14.1c-9.1-9.1-14.1-21.2-14.1-34.1c0-26.6,21.6-48.2,48.2-48.2s48.2,21.6,48.2,48.2
				C-4152.6-3690.3-4157.6-3678.2-4166.7-3669.1z M-4133.7-3792.1c-9.1,9.1-21.2,14.1-34.1,14.1c-12.9,0-25-5-34.1-14.1
				c-9.1-9.1-14.1-21.2-14.1-34.1c0-26.6,21.6-48.2,48.2-48.2c12.9,0,25,5,34.1,14.1c9.1,9.1,14.1,21.2,14.1,34.1
				C-4119.6-3813.2-4124.6-3801.1-4133.7-3792.1z"/>
			<path class="st5" d="M-4290.8-3838.3c9.6,0,18.6-3.7,25.3-10.5c6.8-6.8,10.5-15.8,10.5-25.3c0-19.7-16.1-35.8-35.8-35.8
				s-35.8,16.1-35.8,35.8C-4326.6-3854.4-4310.5-3838.3-4290.8-3838.3z"/>
			<path d="M-4290.8-3825.9c12.9,0,25-5,34.1-14.1c9.1-9.1,14.1-21.2,14.1-34.1c0-26.6-21.6-48.2-48.2-48.2s-48.2,21.6-48.2,48.2
				C-4338.9-3847.5-4317.3-3825.9-4290.8-3825.9z M-4290.8-3909.9c19.8,0,35.8,16.1,35.8,35.8c0,9.6-3.7,18.6-10.5,25.3
				c-6.8,6.8-15.8,10.5-25.3,10.5c-19.7,0-35.8-16.1-35.8-35.8C-4326.6-3893.9-4310.5-3909.9-4290.8-3909.9z"/>
			<path class="st5" d="M-4298.4-3779.5c-6.8-6.8-15.8-10.5-25.3-10.5c-19.7,0-35.8,16.1-35.8,35.8c0,9.6,3.7,18.6,10.5,25.3
				c6.8,6.8,15.8,10.5,25.3,10.5c9.6,0,18.6-3.7,25.3-10.5c6.8-6.8,10.5-15.8,10.5-25.3S-4291.7-3772.7-4298.4-3779.5z"/>
			<path d="M-4289.7-3788.2c-9.1-9.1-21.2-14.1-34.1-14.1c-26.6,0-48.2,21.6-48.2,48.2c0,12.9,5,25,14.1,34.1
				c9.1,9.1,21.2,14.1,34.1,14.1c12.9,0,25-5,34.1-14.1c9.1-9.1,14.1-21.2,14.1-34.1C-4275.6-3767-4280.6-3779.1-4289.7-3788.2z
				 M-4323.8-3718.3c-9.5,0-18.6-3.7-25.3-10.5c-6.8-6.8-10.5-15.8-10.5-25.3c0-19.7,16.1-35.8,35.8-35.8c9.6,0,18.6,3.7,25.3,10.5
				c6.8,6.8,10.5,15.8,10.5,25.3c0,9.6-3.7,18.6-10.5,25.3C-4305.2-3722-4314.2-3718.3-4323.8-3718.3z"/>
			<path class="st5" d="M-4200.8-3739c-19.8,0-35.8,16.1-35.8,35.8c0,9.6,3.7,18.6,10.5,25.3c6.8,6.8,15.8,10.5,25.3,10.5
				c9.6,0,18.6-3.7,25.3-10.5c6.8-6.8,10.5-15.8,10.5-25.3C-4164.9-3722.9-4181-3739-4200.8-3739z"/>
			<path d="M-4200.8-3751.3c-26.6,0-48.2,21.6-48.2,48.2c0,12.9,5,25,14.1,34.1c9.1,9.1,21.2,14.1,34.1,14.1c12.9,0,25-5,34.1-14.1
				c9.1-9.1,14.1-21.2,14.1-34.1C-4152.6-3729.7-4174.2-3751.3-4200.8-3751.3z M-4200.8-3667.3c-9.6,0-18.6-3.7-25.3-10.5
				c-6.8-6.8-10.5-15.8-10.5-25.3c0-19.8,16.1-35.8,35.8-35.8c19.7,0,35.8,16.1,35.8,35.8c0,9.6-3.7,18.6-10.5,25.3
				C-4182.2-3671-4191.2-3667.3-4200.8-3667.3z"/>
			<path class="st5" d="M-4142.4-3851.4c-6.8-6.8-15.8-10.5-25.3-10.5c-19.8,0-35.8,16.1-35.8,35.8c0,9.6,3.7,18.6,10.5,25.3
				c6.8,6.8,15.8,10.5,25.3,10.5c9.6,0,18.6-3.7,25.3-10.5c6.8-6.8,10.5-15.8,10.5-25.3C-4132-3835.7-4135.7-3844.7-4142.4-3851.4z"
				/>
			<path d="M-4167.8-3874.3c-26.6,0-48.2,21.6-48.2,48.2c0,12.9,5,25,14.1,34.1c9.1,9.1,21.2,14.1,34.1,14.1c12.9,0,25-5,34.1-14.1
				c9.1-9.1,14.1-21.2,14.1-34.1c0-12.9-5-25-14.1-34.1C-4142.8-3869.3-4154.9-3874.3-4167.8-3874.3z M-4167.8-3790.3
				c-9.6,0-18.6-3.7-25.3-10.5c-6.8-6.8-10.5-15.8-10.5-25.3c0-19.7,16.1-35.8,35.8-35.8c9.6,0,18.6,3.7,25.3,10.5
				c6.8,6.8,10.5,15.8,10.5,25.3c0,9.6-3.7,18.6-10.5,25.3C-4149.2-3794-4158.2-3790.3-4167.8-3790.3z"/>
			<path class="st6" d="M-4520.9-3569.1l-54.7,25c-1.9,0.9-2.8,3.2-1.9,5.1c0.9,1.9,3.2,2.8,5.1,1.9l54.7-25
				c1.4-0.7,2.3-2.1,2.3-3.5c0-0.5-0.1-1.1-0.3-1.6C-4516.7-3569.1-4519-3570-4520.9-3569.1z"/>
			<path d="M-4504.6-3571.7c-3.7-9-13.4-12-21.5-8.3l-54.7,24.9c-8.1,3.7-11.7,13.3-8,21.4c3.7,8.1,13.3,11.7,21.5,7.9l54.7-24.7
				C-4504.5-3554.2-4500.9-3563.7-4504.6-3571.7L-4504.6-3571.7z M-4517.7-3562.1l-54.7,25c-1.9,0.9-4.2,0-5.1-1.9s0-4.2,1.9-5.1
				l54.7-25c1.9-0.9,4.2,0,5.1,1.9c0.2,0.5,0.3,1.1,0.3,1.6C-4515.5-3564.1-4516.3-3562.7-4517.7-3562.1z"/>
			<path class="st6" d="M-4470.5-3595.1c1,0.3,2,0.2,2.9-0.3l52.8-28.9c0.9-0.5,1.5-2.4,1.8-3.4c0.3-1,0.2-4-0.3-4l0,0
				c-1,0-3.4-1.5-5.2-0.5l-52.8,29.4c-1.9,1-2.5,3.6-1.5,5.5C-4472.3-3596.4-4471.5-3595.4-4470.5-3595.1z"/>
			<path d="M-4483.7-3591c2.1,3.8,5.5,6.5,9.7,7.8c4.2,1.2,8.5,0.7,12.3-1.3l52.8-28.9c3.8-2.1,6.6-5.5,7.8-9.7
				c0.4-1.5,0.5-3.1,0.5-4.6c0-2.7-2.2-5.3-2.2-7.8l0,0l0.4,3.8l0,0c-4.3-9-14.2-12.6-22-8.3l-52.8,27.9
				C-4485.1-3607.8-4488-3598.9-4483.7-3591z M-4471.3-3602.2l52.8-30c1.9-1,4.2,0.5,5.2,0.5l0,0c0.5,0,0.6,3,0.3,4
				c-0.3,1-0.9,2.4-1.8,2.8l-52.8,29.2c-0.9,0.5-2,0.7-2.9,0.5c-1-0.3-1.8-0.9-2.3-1.8C-4473.8-3598.9-4473.2-3601.2-4471.3-3602.2z
				"/>
			<path class="st1" d="M-4772.6-3754.5c-3.4,7.4-11.8,25.9-13.8,30.4c0.6,1,2.1,3.4,4.1,6.6c48.6-11,265-66.3,348-197.1l-10.7-28.6
				C-4477.2-3914-4622.5-3788.3-4772.6-3754.5z"/>
			<path class="st2" d="M-4772.6-3754.5c-3.4,7.4-11.8,25.9-13.8,30.4c0.6,1,2.1,3.4,4.1,6.6c48.6-11,265-66.3,348-197.1l-10.7-28.6
				C-4477.2-3914-4622.5-3788.3-4772.6-3754.5z"/>
			<path d="M-4777.4-3760.4l-14.7,45c0,0,3.6-0.7,9.9-2.1c-2-3.2-3.5-5.6-4.1-6.6c2-4.4,10.4-23,13.8-30.4
				c150.1-33.8,295.4-159.5,327.6-188.7l10.7,28.6c2.3-3.6,4.5-7.1,6.6-10.8l-18.4-32.1c0,0-43.9,64.4-167.7,129.8
				c-0.7,7.3-6.9,12.9-14.3,12.5c-0.5,0-3.6-0.2-8.3-0.9C-4675.9-3796.8-4722.6-3777.7-4777.4-3760.4z"/>
			<path class="st2" d="M-4777.4-3760.4l-14.7,45c0,0,3.6-0.7,9.9-2.1c-2-3.2-3.5-5.6-4.1-6.6c2-4.4,10.4-23,13.8-30.4
				c150.1-33.8,295.4-159.5,327.6-188.7l10.7,28.6c2.3-3.6,4.5-7.1,6.6-10.8l-18.4-32.1c0,0-43.9,64.4-167.7,129.8
				c-0.7,7.3-6.9,12.9-14.3,12.5c-0.5,0-3.6-0.2-8.3-0.9C-4675.9-3796.8-4722.6-3777.7-4777.4-3760.4z"/>
			<path class="st6" d="M-4792.6-4217.4c-24.9-29-118.8-138.1-118.8-138.1c-1.5-1.8-2.3-3.9-2.3-6.1c0-2.5,1-5,2.9-6.8
				c3.6-3.4,9.3-3.4,12.9,0.1c0,0,122.9,119.4,144.8,140.7c1.2-9.5,2-18.8,2-27.6c0-35.9-10.1-65.4-30.1-87.9
				c-45.6-51.2-130.4-53.6-156.4-53c-0.1,2.6-0.2,5.2-0.2,7.7c0,47.7,13.4,86.6,40,116C-4865.1-4236.2-4819.9-4222.6-4792.6-4217.4z
				"/>
			<path class="st6" d="M-4727.3-4255.2c16.2-15.9,77.9-76.5,77.9-76.5c2.3-2.2,5.9-2.2,8.2,0c1.2,1.1,1.8,2.7,1.8,4.2
				c0,1.4-0.5,2.8-1.5,3.9c0,0-71.3,79-85.2,94.3c31.6,0.5,56.1-8.1,73-25.9c23.5-24.7,27.4-61.8,27.4-83.5c0-4.9-0.2-8.7-0.4-11.7
				c-33.3,2.6-59.3,13.5-76.7,33.2C-4721.3-4296.3-4726.1-4270.7-4727.3-4255.2z"/>
			<path class="st6" d="M-4868.9-4131.1c-3,1.1-6.4-0.3-7.5-3.3c-0.3-0.7-0.4-1.4-0.4-2.2c0-2.3,1.4-4.5,3.6-5.4
				c0,0,96.1-39.7,116.5-48.1c-27.8-13.5-53.5-17.1-76.1-8.4c-39.2,15-59.4,59.3-65.3,74.4c30.4,11.7,58,12.9,81.9,2.6
				c26.9-11.5,43.3-34.5,51.4-48.9C-4786.5-4162.3-4868.9-4131.1-4868.9-4131.1z"/>
		</g>
	</g>
</g>
</svg>
